<svg width="49" height="49" viewBox="0 0 49 49" fill="none" xmlns="http://www.w3.org/2000/svg">
<g clip-path="url(#clip0_15376_1767)">
<path d="M8.16678 13.0954L1.54565 6.47636L4.43461 3.5874L11.0537 10.2085H42.1728C42.491 10.2085 42.8048 10.2829 43.0892 10.4257C43.3736 10.5685 43.6207 10.7758 43.8107 11.0311C44.0007 11.2864 44.1284 11.5825 44.1836 11.8959C44.2388 12.2093 44.22 12.5313 44.1287 12.8362L39.2287 29.1695C39.1026 29.5902 38.8442 29.9591 38.4919 30.2214C38.1395 30.4836 37.712 30.6252 37.2728 30.6252H12.2501V34.7085H34.7084V38.7919H10.2084C9.66696 38.7919 9.14766 38.5768 8.76477 38.1939C8.38188 37.811 8.16678 37.2917 8.16678 36.7502V13.0954ZM11.2293 46.9585C10.4171 46.9585 9.63809 46.6359 9.06376 46.0615C8.48943 45.4872 8.16678 44.7083 8.16678 43.896C8.16678 43.0838 8.48943 42.3048 9.06376 41.7305C9.63809 41.1562 10.4171 40.8335 11.2293 40.8335C12.0415 40.8335 12.8205 41.1562 13.3948 41.7305C13.9691 42.3048 14.2918 43.0838 14.2918 43.896C14.2918 44.7083 13.9691 45.4872 13.3948 46.0615C12.8205 46.6359 12.0415 46.9585 11.2293 46.9585ZM35.7293 46.9585C34.9171 46.9585 34.1381 46.6359 33.5638 46.0615C32.9894 45.4872 32.6668 44.7083 32.6668 43.896C32.6668 43.0838 32.9894 42.3048 33.5638 41.7305C34.1381 41.1562 34.9171 40.8335 35.7293 40.8335C36.5415 40.8335 37.3205 41.1562 37.8948 41.7305C38.4691 42.3048 38.7918 43.0838 38.7918 43.896C38.7918 44.7083 38.4691 45.4872 37.8948 46.0615C37.3205 46.6359 36.5415 46.9585 35.7293 46.9585Z" fill="#F0DA17" fill-opacity="0.81"/>
</g>
<defs>
<clipPath id="clip0_15376_1767">
<rect width="49" height="49" fill="white"/>
</clipPath>
</defs>
</svg>
